<?xml version="1.0" encoding="UTF-8"?>
<svg id="Layer_1" xmlns="http://www.w3.org/2000/svg" version="1.1" viewBox="0 0 160 40">
  <!-- Generator: Adobe Illustrator 29.8.1, SVG Export Plug-In . SVG Version: 2.1.1 Build 2)  -->
  <defs>
    <style>
      .st0 {
        fill-rule: evenodd;
      }

      .st0, .st1 {
        fill: #100d0a;
      }
    </style>
  </defs>
  <g>
    <path class="st0" d="M24.32.32c-5.38,0-10.14,2.62-13.09,6.65-.69.95-1.28,1.97-1.76,3.06L0,8.04l11.75,4.49,4.39,1.68h0l23.05,8.8c.86-1.98,1.34-4.17,1.34-6.47C40.54,7.58,33.27.32,24.32.32ZM17.46,11.53c1.55-2.11,4.04-3.48,6.86-3.48,4.13,0,7.57,2.94,8.34,6.85l-15.3-3.21c.04-.05.07-.1.11-.15Z"/>
    <path class="st0" d="M24.32,25.04c-4.61,0-8.37-3.68-8.49-8.26l-7.31-3.9s0,0,0,0c-.27,1.18-.42,2.4-.42,3.66,0,8.96,7.26,16.22,16.22,16.22,4.67,0,8.88-1.98,11.84-5.14l-7.31-3.9c-1.31.83-2.87,1.31-4.54,1.31Z"/>
  </g>
  <path class="st1" d="M53.54,32.3h6.01v-12.51c0-3.19,1.95-4.76,4.51-4.76s3.81,1.41,3.81,4.35v12.92h6.01v-13.79c0-5.8-3.02-8.37-7.29-8.37-3.6,0-5.96,1.78-7.04,3.93V.83h-6.01v31.48ZM79.27,39.68h5.8l11.72-29.04h-5.76l-4.85,13.01-5.26-13.01h-6.46l8.62,19.47-3.81,9.57ZM98.8,39.68h6.01v-10.69c1.12,2.11,3.56,3.77,6.92,3.77,5.38,0,9.44-4.02,9.44-11.18v-.33c0-7.17-4.14-11.1-9.44-11.1-3.19,0-5.72,1.82-6.92,3.89v-3.4h-6.01v29.04ZM109.94,28.08c-3.27,0-5.34-2.11-5.34-6.46v-.33c0-4.35,2.15-6.54,5.3-6.54s5.18,2.15,5.18,6.54v.33c0,4.22-1.82,6.46-5.14,6.46ZM134.32,32.76c5.92,0,9.65-2.61,10.35-7.29h-5.67c-.37,1.82-1.74,3.02-4.51,3.02-3.27,0-5.22-2.07-5.38-5.67h15.62v-1.66c0-7.75-4.97-11.02-10.56-11.02-6.3,0-11.14,4.43-11.14,11.27v.33c0,6.92,4.76,11.02,11.31,11.02ZM129.19,19.13c.46-3.07,2.28-4.85,4.97-4.85,2.86,0,4.51,1.57,4.72,4.85h-9.69ZM146.99,32.3h6.01v-10.85c0-4.14,2.57-5.59,7-5.55v-5.59c-3.52.04-5.63,1.57-7,4.47v-4.14h-6.01v21.66Z"/>
</svg>