<?xml version="1.0" encoding="UTF-8"?>
<svg id="Layer_1" data-name="Layer 1" xmlns="http://www.w3.org/2000/svg" viewBox="0 0 256 256">
  <path d="M100.68,216.87c-8.6,0-16.72-3.36-22.87-9.46l-58.76-58.76c-6.11-6.11-9.48-14.24-9.48-22.9s3.37-16.8,9.48-22.91c6.11-6.11,14.25-9.48,22.92-9.48s16.77,3.37,22.89,9.48l35.81,35.82,88.77-88.76c12.63-12.59,33.17-12.59,45.8,0,6.13,6.13,9.49,14.28,9.48,22.96,0,8.66-3.37,16.78-9.48,22.87l-111.64,111.68c-6.16,6.12-14.3,9.48-22.92,9.48ZM41.98,106.29c-5.21,0-10.11,2.02-13.78,5.69-3.67,3.67-5.69,8.56-5.69,13.77s2.02,10.09,5.69,13.76l58.74,58.74c3.7,3.67,8.58,5.69,13.74,5.69s10.09-2.03,13.8-5.71l111.64-111.67c3.67-3.65,5.68-8.53,5.69-13.73,0-5.22-2.01-10.12-5.68-13.79-7.59-7.56-19.95-7.56-27.54,0l-95.26,95.26c-.7.7-1.65,1.09-2.64,1.09s-1.94-.39-2.64-1.09l-42.32-42.32c-3.67-3.67-8.55-5.69-13.74-5.69Z"/>
</svg>