<?xml version="1.0" encoding="UTF-8"?>
<svg id="Layer_1" data-name="Layer 1" xmlns="http://www.w3.org/2000/svg" viewBox="0 0 256 256">
  <path d="M113.07,240.99h-48.37c-3.09,0-5.6-2.51-5.6-5.6v-34.71h-23.36c-3.09,0-5.6-2.51-5.6-5.6v-19.71c0-3.09,2.51-5.6,5.6-5.6h23.36v-7.32h-23.36c-3.09,0-5.6-2.51-5.6-5.6v-19.71c0-3.09,2.51-5.6,5.6-5.6h23.36V21.93c0-3.09,2.51-5.6,5.6-5.6h73.74c56.36,0,87.4,26.16,87.4,73.67v1.19c0,46.06-31.2,72.47-85.61,72.47h-21.57v6.12h59.79c3.09,0,5.6,2.51,5.6,5.6v19.71c0,3.09-2.51,5.6-5.6,5.6h-59.79v34.71c0,3.09-2.51,5.6-5.6,5.6ZM70.3,229.8h37.17v-34.71c0-3.09,2.51-5.6,5.6-5.6h59.79v-8.51h-59.79c-3.09,0-5.6-2.51-5.6-5.6v-17.32c0-3.09,2.51-5.6,5.6-5.6h27.17c27.79,0,74.42-7.96,74.42-61.28v-1.19c0-20.48-6.48-36.16-19.26-46.61-12.88-10.53-32.04-15.87-56.95-15.87h-68.15v109.65c0,3.09-2.51,5.6-5.6,5.6h-23.36v8.51h23.36c3.09,0,5.6,2.51,5.6,5.6v18.51c0,3.09-2.51,5.6-5.6,5.6h-23.36v8.51h23.36c3.09,0,5.6,2.51,5.6,5.6v34.71ZM137.25,129.63h-24.18c-3.09,0-5.6-2.51-5.6-5.6V58.65c0-3.09,2.51-5.6,5.6-5.6h24.48c34.48,0,41.72,20.25,41.72,37.24v1.19c0,12.23-3.74,21.78-11.12,28.39-7.22,6.47-17.62,9.75-30.91,9.75ZM118.67,118.44h18.59c20.75,0,30.83-8.81,30.83-26.95v-1.19c0-18.26-9.13-26.05-30.53-26.05h-18.89v54.19Z"/>
</svg>