<?xml version="1.0" encoding="UTF-8"?>
<svg id="Layer_1" data-name="Layer 1" xmlns="http://www.w3.org/2000/svg" viewBox="0 0 256 256">
  <defs>
    <style>
      .cls-1 {
        fill-rule: evenodd;
      }
    </style>
  </defs>
  <path d="M123.81,23.82c0-4.14-3.35-7.49-7.49-7.49h-37.44c-33.09,0-59.91,26.82-59.91,59.91v52.42c0,4.14,3.35,7.49,7.49,7.49s7.49-3.35,7.49-7.49v-52.42c0-24.82,20.12-44.93,44.93-44.93h37.44c4.14,0,7.49-3.35,7.49-7.49Z"/>
  <path d="M146.28,23.82c0,4.14,3.35,7.49,7.49,7.49h7.49c24.82,0,44.93,20.12,44.93,44.93v61.03c5.3,1.08,10.33,2.9,14.98,5.35v-66.39c0-33.09-26.82-59.91-59.91-59.91h-7.49c-4.14,0-7.49,3.35-7.49,7.49Z"/>
  <path d="M78.88,218.52c-30.56,0-55.77-22.88-59.45-52.44-.51-4.1,2.89-7.47,7.03-7.47s7.42,3.38,8.1,7.46c3.55,21.27,22.04,37.47,44.32,37.47h61.03c1.08,5.3,2.9,10.33,5.35,14.98h-66.39Z"/>
  <path d="M130.7,142.01c3.11,2.48,7.61,2.09,10.26-.87l33.38-37.44c2.75-3.09,2.48-7.82-.61-10.57-3.09-2.75-7.82-2.48-10.57.61l-28.66,32.15-30.62-24.39c-2.9-2.31-7.06-2.15-9.77.38l-27.82,25.92c-3.03,2.82-3.19,7.56-.37,10.58,2.82,3.03,7.56,3.19,10.58.37l23.09-21.52,31.11,24.78Z"/>
  <path d="M202.45,177.34c0-4.14-3.35-7.49-7.49-7.49s-7.49,3.35-7.49,7.49v7.49h-7.49c-4.14,0-7.49,3.35-7.49,7.49s3.35,7.49,7.49,7.49h7.49v7.49c0,4.14,3.35,7.49,7.49,7.49s7.49-3.35,7.49-7.49v-7.49h7.49c4.14,0,7.49-3.35,7.49-7.49s-3.35-7.49-7.49-7.49h-7.49v-7.49Z"/>
  <path class="cls-1" d="M194.96,143.64c26.88,0,48.68,21.79,48.68,48.68s-21.79,48.68-48.68,48.68-48.68-21.79-48.68-48.68,21.79-48.68,48.68-48.68ZM228.66,192.31c0-18.61-15.09-33.7-33.7-33.7s-33.7,15.09-33.7,33.7,15.09,33.7,33.7,33.7,33.7-15.09,33.7-33.7Z"/>
</svg>