<?xml version="1.0" encoding="UTF-8"?>
<svg id="Layer_1" data-name="Layer 1" xmlns="http://www.w3.org/2000/svg" viewBox="0 0 256 256">
  <g id="g275">
    <g id="g277">
      <g id="g279">
        <g id="g285">
          <path id="path287" d="M215.82,207.7H40.18c-4.86,0-8.78,3.93-8.78,8.78s3.93,8.78,8.78,8.78h175.65c4.86,0,8.78-3.93,8.78-8.78s-3.93-8.78-8.78-8.78"/>
        </g>
        <path id="path289" d="M57.74,119.88h35.13v52.69h-35.13v-52.69ZM110.44,84.75h35.13v87.82h-35.13v-87.82ZM163.13,49.62h35.13v122.95h-35.13V49.62ZM48.96,190.13h158.08c4.86,0,8.78-3.93,8.78-8.78V49.62c0-9.69-7.88-17.56-17.56-17.56h-35.13c-9.69,0-17.56,7.88-17.56,17.56v17.56h-35.13c-9.69,0-17.56,7.88-17.56,17.56v17.56h-35.13c-9.69,0-17.56,7.88-17.56,17.56v61.48c0,4.86,3.93,8.78,8.78,8.78"/>
      </g>
    </g>
  </g>
</svg>